<svg xmlns="http://www.w3.org/2000/svg" version="1.1" xmlns:xlink="http://www.w3.org/1999/xlink" xmlns:svgjs="http://svgjs.dev/svgjs" width="1440" height="560" preserveAspectRatio="none" viewBox="0 0 1440 560"><g mask="url(&quot;#SvgjsMask1006&quot;)" fill="none"><rect width="1440" height="560" x="0" y="0" fill="rgba(192, 233, 230, 1)"></rect><path d="M726 229L725 89" stroke-width="8" stroke="url(&quot;#SvgjsLinearGradient1007&quot;)" stroke-linecap="round" class="Up"></path><path d="M1370 517L1369 934" stroke-width="8" stroke="url(&quot;#SvgjsLinearGradient1007&quot;)" stroke-linecap="round" class="Up"></path><path d="M321 2L320 -361" stroke-width="10" stroke="url(&quot;#SvgjsLinearGradient1008&quot;)" stroke-linecap="round" class="Down"></path><path d="M1113 454L1112 694" stroke-width="8" stroke="url(&quot;#SvgjsLinearGradient1007&quot;)" stroke-linecap="round" class="Up"></path><path d="M1392 364L1391 -11" stroke-width="8" stroke="url(&quot;#SvgjsLinearGradient1007&quot;)" stroke-linecap="round" class="Up"></path><path d="M737 63L736 -139" stroke-width="6" stroke="url(&quot;#SvgjsLinearGradient1007&quot;)" stroke-linecap="round" class="Up"></path><path d="M1085 279L1084 -57" stroke-width="8" stroke="url(&quot;#SvgjsLinearGradient1007&quot;)" stroke-linecap="round" class="Up"></path><path d="M707 558L706 852" stroke-width="8" stroke="url(&quot;#SvgjsLinearGradient1008&quot;)" stroke-linecap="round" class="Down"></path><path d="M224 545L223 325" stroke-width="6" stroke="url(&quot;#SvgjsLinearGradient1007&quot;)" stroke-linecap="round" class="Up"></path><path d="M322 500L321 675" stroke-width="6" stroke="url(&quot;#SvgjsLinearGradient1008&quot;)" stroke-linecap="round" class="Down"></path><path d="M1285 449L1284 229" stroke-width="6" stroke="url(&quot;#SvgjsLinearGradient1008&quot;)" stroke-linecap="round" class="Down"></path><path d="M115 214L114 -95" stroke-width="8" stroke="url(&quot;#SvgjsLinearGradient1007&quot;)" stroke-linecap="round" class="Up"></path><path d="M204 84L203 -103" stroke-width="8" stroke="url(&quot;#SvgjsLinearGradient1007&quot;)" stroke-linecap="round" class="Up"></path><path d="M1133 25L1132 -300" stroke-width="8" stroke="url(&quot;#SvgjsLinearGradient1007&quot;)" stroke-linecap="round" class="Up"></path><path d="M11 522L10 293" stroke-width="6" stroke="url(&quot;#SvgjsLinearGradient1007&quot;)" stroke-linecap="round" class="Up"></path><path d="M1382 196L1381 426" stroke-width="8" stroke="url(&quot;#SvgjsLinearGradient1008&quot;)" stroke-linecap="round" class="Down"></path><path d="M184 420L183 587" stroke-width="8" stroke="url(&quot;#SvgjsLinearGradient1008&quot;)" stroke-linecap="round" class="Down"></path><path d="M416 12L415 361" stroke-width="6" stroke="url(&quot;#SvgjsLinearGradient1008&quot;)" stroke-linecap="round" class="Down"></path><path d="M682 322L681 55" stroke-width="10" stroke="url(&quot;#SvgjsLinearGradient1007&quot;)" stroke-linecap="round" class="Up"></path><path d="M302 337L301 162" stroke-width="10" stroke="url(&quot;#SvgjsLinearGradient1008&quot;)" stroke-linecap="round" class="Down"></path><path d="M1021 66L1020 -214" stroke-width="10" stroke="url(&quot;#SvgjsLinearGradient1007&quot;)" stroke-linecap="round" class="Up"></path><path d="M828 224L827 546" stroke-width="10" stroke="url(&quot;#SvgjsLinearGradient1007&quot;)" stroke-linecap="round" class="Up"></path><path d="M619 334L618 629" stroke-width="8" stroke="url(&quot;#SvgjsLinearGradient1008&quot;)" stroke-linecap="round" class="Down"></path><path d="M262 511L261 918" stroke-width="10" stroke="url(&quot;#SvgjsLinearGradient1008&quot;)" stroke-linecap="round" class="Down"></path><path d="M865 224L864 581" stroke-width="10" stroke="url(&quot;#SvgjsLinearGradient1007&quot;)" stroke-linecap="round" class="Up"></path><path d="M467 19L466 -383" stroke-width="6" stroke="url(&quot;#SvgjsLinearGradient1007&quot;)" stroke-linecap="round" class="Up"></path><path d="M1124 109L1123 -164" stroke-width="6" stroke="url(&quot;#SvgjsLinearGradient1008&quot;)" stroke-linecap="round" class="Down"></path><path d="M177 415L176 125" stroke-width="6" stroke="url(&quot;#SvgjsLinearGradient1008&quot;)" stroke-linecap="round" class="Down"></path><path d="M624 25L623 278" stroke-width="10" stroke="url(&quot;#SvgjsLinearGradient1008&quot;)" stroke-linecap="round" class="Down"></path><path d="M1209 128L1208 -209" stroke-width="6" stroke="url(&quot;#SvgjsLinearGradient1007&quot;)" stroke-linecap="round" class="Up"></path><path d="M344 119L343 -194" stroke-width="10" stroke="url(&quot;#SvgjsLinearGradient1007&quot;)" stroke-linecap="round" class="Up"></path><path d="M1288 547L1287 398" stroke-width="6" stroke="url(&quot;#SvgjsLinearGradient1008&quot;)" stroke-linecap="round" class="Down"></path><path d="M849 466L848 230" stroke-width="8" stroke="url(&quot;#SvgjsLinearGradient1008&quot;)" stroke-linecap="round" class="Down"></path><path d="M1258 114L1257 526" stroke-width="6" stroke="url(&quot;#SvgjsLinearGradient1007&quot;)" stroke-linecap="round" class="Up"></path><path d="M149 553L148 886" stroke-width="10" stroke="url(&quot;#SvgjsLinearGradient1008&quot;)" stroke-linecap="round" class="Down"></path><path d="M278 132L277 349" stroke-width="6" stroke="url(&quot;#SvgjsLinearGradient1007&quot;)" stroke-linecap="round" class="Up"></path></g><defs><mask id="SvgjsMask1006"><rect width="1440" height="560" fill="#ffffff"></rect></mask><linearGradient x1="0%" y1="100%" x2="0%" y2="0%" id="SvgjsLinearGradient1007"><stop stop-color="rgba(239, 99, 43, 0)" offset="0"></stop><stop stop-color="rgba(239, 99, 43, 1)" offset="1"></stop></linearGradient><linearGradient x1="0%" y1="0%" x2="0%" y2="100%" id="SvgjsLinearGradient1008"><stop stop-color="rgba(239, 99, 43, 0)" offset="0"></stop><stop stop-color="rgba(239, 99, 43, 1)" offset="1"></stop></linearGradient></defs></svg>